<svg xmlns="http://www.w3.org/2000/svg" width="182.999" height="35.647" viewBox="0 0 182.999 35.647">
  <g id="Group_8" data-name="Group 8" transform="translate(-316.661 -234.322)">
    <g id="Ebene_2" data-name="Ebene 2" transform="translate(316.661 234.322)">
      <g id="Ebene_1-2" data-name="Ebene 1-2">
        <rect id="Rectangle_1" data-name="Rectangle 1" width="0.538" height="35.533" transform="translate(67.552)" fill="#fff"/>
        <path id="Path_1" data-name="Path 1" d="M468.984,243.992l-2.446,5.924h.574l4.651-5.924Z" transform="translate(-296.568 -238.601)" fill="#fff"/>
        <path id="Path_2" data-name="Path 2" d="M311.118,255.915A8.824,8.824,0,0,1,307.15,255l-1.017.912h-.471l-.312-5.786.547-.052c1.645,3.759,3.575,4.958,5.378,4.958a2.754,2.754,0,0,0,2.975-2.87c0-1.567-.6-2.324-3.053-3.342-.836-.338-1.8-.678-2.61-1.069a4.554,4.554,0,0,1-2.793-4.255,5.119,5.119,0,0,1,5.325-4.985,5.7,5.7,0,0,1,3.053.862l1.019-.883h.44l.44,5.114-.522.08c-1.431-2.883-2.972-4.287-4.67-4.287a2.358,2.358,0,0,0-2.48,2.532c0,1.227.523,2.166,2.375,2.977.912.417,1.985.783,2.949,1.252,2.113,1.017,3.107,2.352,3.107,4.279a5.539,5.539,0,0,1-5.717,5.481" transform="translate(-225.243 -236.168)" fill="#fff"/>
        <path id="Path_3" data-name="Path 3" d="M335.573,259.786c-3.968,0-5.925-2.845-5.925-6.32a6.087,6.087,0,0,1,6.262-6.29c3.968,0,5.879,2.819,5.879,6.264a6.075,6.075,0,0,1-6.212,6.343m.1-11.876c-1.829,0-2.95,2.035-2.95,5.612,0,3.527,1.2,5.53,3.053,5.53,1.911,0,2.949-2.033,2.949-5.61,0-3.527-1.121-5.533-3.053-5.533" transform="translate(-235.995 -240.01)" fill="#fff"/>
        <path id="Path_4" data-name="Path 4" d="M357.889,257.336c-2.058,0-2.713-1.017-2.713-2.9v-7.808h-1.933v-.359l2.4-1.91,1.911-2.48h.392v3.4h3.968v1.351h-3.968v6.76c0,1.044.156,1.67.679,2.036a3.231,3.231,0,0,0,1.91.419c.417,0,.94-.027,1.436-.055l.025.366a8.65,8.65,0,0,1-4.1,1.175" transform="translate(-246.436 -237.668)" fill="#fff"/>
        <path id="Path_5" data-name="Path 5" d="M377.641,243.49a5.7,5.7,0,0,0-2.714.652v8.638l1.461.548v.364h-5.9v-.364l1.645-.548V237.017l-1.8-1.176v-.26l4.49-1.227.1.078v9.135l.106.052a6.372,6.372,0,0,1,4.358-2.113c2.352,0,3.34,1.775,3.34,3.628v7.642l1.646.548v.364h-5.894v-.364l1.469-.548V246.2c0-1.7-.68-2.714-2.3-2.714" transform="translate(-253.999 -234.337)" fill="#fff"/>
        <path id="Path_6" data-name="Path 6" d="M400.088,252.582c0,3.315.938,5.481,3.888,5.481a10.677,10.677,0,0,0,3.94-.835l.156.313a8.035,8.035,0,0,1-5.037,2.246c-3.576,0-5.926-2.454-5.926-6.081a6.285,6.285,0,0,1,6-6.525c3.446,0,5.117,2.322,5.089,5.4Zm5.193-.881c-.1-2.453-.81-3.784-2.352-3.784-1.515,0-2.688,1.591-2.819,4.02Z" transform="translate(-265.847 -240.012)" fill="#fff"/>
        <path id="Path_7" data-name="Path 7" d="M424.512,254.114a17.733,17.733,0,0,1-4.409-.679V237.018l-1.826-1.175v-.26l4.514-1.227.106.077v8.742l.1.053a5.331,5.331,0,0,1,3.784-1.722c2.48,0,4.722,2.27,4.722,6s-2.817,6.6-6.994,6.6m.442-10.781a5.191,5.191,0,0,0-2.058.419v8.271a3.927,3.927,0,0,0,2.844,1.2c1.54,0,2.819-1.383,2.819-5.063,0-3.233-1.383-4.827-3.6-4.827" transform="translate(-275.213 -234.338)" fill="#fff"/>
        <path id="Path_8" data-name="Path 8" d="M449.349,260.507c-1.306,3.212-2.531,4.621-4.148,4.621-1.385,0-2.036-.81-2.036-1.645A1.557,1.557,0,0,1,444.727,262a2.522,2.522,0,0,1,2.037,1.251,10.073,10.073,0,0,0,1.435-2.22l.44-.989-4.616-11.144-1.593-.626v-.338H448.8v.34l-1.674.627,2.819,7.642h.13l2.558-7.464-1.512-.81v-.335h4.488v.34l-1.7.861Z" transform="translate(-285.901 -240.343)" fill="#fff"/>
        <path id="Path_9" data-name="Path 9" d="M478.44,259.787a10.324,10.324,0,0,1-3.863-.706l-.025-3.445.523-.051c1.408,2.478,2.48,3.416,3.862,3.416a1.849,1.849,0,0,0,1.982-1.982c0-1.357-1.383-1.878-2.87-2.48-1.645-.7-3.393-1.489-3.393-3.654,0-2.058,1.827-3.707,4.49-3.707a11.123,11.123,0,0,1,3.157.471l.08,3.105-.5.131c-1.279-2.113-2.113-2.924-3.315-2.924a1.649,1.649,0,0,0-1.775,1.67c0,1.358,1.409,1.91,2.9,2.508,1.646.678,3.42,1.461,3.42,3.673,0,2.426-2.14,3.968-4.673,3.968" transform="translate(-300.115 -240.011)" fill="#fff"/>
        <path id="Path_10" data-name="Path 10" d="M405.545,293.143h.588v-2.676l2.044-3.4h-.624l-1.7,2.9-1.708-2.9h-.632l2.03,3.4Zm-5.244,0h.588v-5.534h1.962v-.54h-4.507v.54H400.3Zm-5.178,0h3.552v-.535h-2.97v-5.539h-.588Zm-5.01-2.389,1.042-3.021h.017l1.042,3.021Zm-1.4,2.389h.568l.652-1.874h2.46l.649,1.872h.605l-2.149-6.1h-.633Zm-4.548,0h3.8v-.535h-3.217V290.2h2.273v-.526h-2.271v-2.058H387.8v-.541h-3.628Zm-5.424-3.245v-2.3h1.412c1.018,0,1.576.294,1.576,1.135,0,.882-.568,1.164-1.569,1.164Zm-.575,3.245h.575v-2.726h1.521l1.484,2.726h.656l-1.533-2.793a1.552,1.552,0,0,0,1.452-1.64c0-1.067-.754-1.642-2.109-1.642h-2.035Zm-7.033,0h3.554v-.535h-2.966v-5.539h-.588Zm-5.151-2.389,1.043-3.021h.017l1.04,3.021Zm-1.394,2.389h.565l.649-1.874h2.462l.647,1.872h.609l-2.151-6.1h-.627Zm-6.115,0h.55V287.98h.017l3.452,5.162h.52v-6.073h-.551v5.007h-.016l-3.344-5.007h-.623Zm-4.427-.4c-1.15,0-1.978-.977-1.978-2.626s.828-2.62,1.978-2.62,1.977.97,1.977,2.62-.828,2.626-1.977,2.626m0,.522c1.486,0,2.561-1.246,2.561-3.149s-1.074-3.153-2.561-3.153-2.56,1.248-2.56,3.153,1.075,3.149,2.56,3.149m-4.89-.113h.588v-6.08h-.588Zm-3.94,0h.588v-5.539h1.962v-.541h-4.512v.541h1.962v5.539Zm-5.879-2.387,1.045-3.019h.017l1.043,3.021Zm-1.395,2.387h.565l.651-1.88h2.462l.648,1.872h.609l-2.15-6.1H340.1Zm-6.108,0h.551v-5.169h.017l3.455,5.162h.517v-6.073h-.551v5.007h-.017l-3.348-5.007h-.624Zm-5.585-3.242v-2.31h1.41c1.018,0,1.577.294,1.577,1.134,0,.883-.568,1.164-1.569,1.164Zm-.575,3.242h.575v-2.733h1.507l1.486,2.727h.658l-1.535-2.793a1.552,1.552,0,0,0,1.451-1.64c0-1.067-.755-1.642-2.11-1.642h-2.034Zm-5.377,0h3.8v-.535h-3.211v-2.418h2.273v-.526h-2.273V287.61h3.045v-.541H320.3Zm-3.856,0h.588v-5.539H319v-.541h-4.511v.541h1.962Zm-7.814,0h.551v-5.169h.017l3.462,5.162h.517v-6.073h-.55v5.007h-.017l-3.349-5.007h-.623Zm-2.682,0h.588v-6.08h-.588Z" transform="translate(-225.509 -257.613)" fill="#fff"/>
        <path id="Path_11" data-name="Path 11" d="M161.662,246.644h5.69c3.7,0,5.558,1.528,5.558,4.115a3.692,3.692,0,0,1-3.1,3.787v.044c2.038.381,3.631,1.646,3.631,4,0,2.591-1.815,4.452-5.6,4.452h-6.178v-16.4Zm5.559,7.284c2.613,0,4.141-.928,4.141-2.966,0-2.015-1.262-2.9-4.1-2.9h-4.053v5.866Zm.6,7.7c2.811,0,4.074-1.129,4.074-3.121,0-2.214-1.749-3.212-4.556-3.212h-4.115v6.333Z" transform="translate(-161.661 -239.774)" fill="#fff"/>
        <path id="Path_12" data-name="Path 12" d="M187,260.752c0-4.141,2.657-6.046,5.117-6.046,2.723,0,4.76,2.082,4.76,6.067v.294h-8.347c.021,2.879,1.66,4.5,3.673,4.5a3.946,3.946,0,0,0,3.631-2.127l.953.752a5.142,5.142,0,0,1-4.671,2.651C189.4,266.84,187,264.737,187,260.752Zm8.393-.908c-.156-2.213-1.219-3.852-3.3-3.852-1.683,0-3.256,1.216-3.544,3.852Z" transform="translate(-172.875 -243.342)" fill="#fff"/>
        <path id="Path_13" data-name="Path 13" d="M209.881,254.929h1.528v2.3h.044a5.131,5.131,0,0,1,4.628-2.525h.266l-.155,1.421s-.421-.022-.466-.022a4.715,4.715,0,0,0-4.317,2.9V266.6h-1.528V254.929Z" transform="translate(-182.998 -243.342)" fill="#fff"/>
        <path id="Path_14" data-name="Path 14" d="M225.807,246.644h1.529v16.387h-1.529Z" transform="translate(-190.046 -239.774)" fill="#fff"/>
        <path id="Path_15" data-name="Path 15" d="M235.26,247.322h1.617v1.637H235.26Zm.045,4.339h1.529V263.33H235.3Z" transform="translate(-194.228 -240.074)" fill="#fff"/>
        <path id="Path_16" data-name="Path 16" d="M244.632,254.93h1.528v1.837a6.4,6.4,0,0,1,4.45-2.058,3.124,3.124,0,0,1,3.477,3.454V266.6h-1.528v-8.151c0-1.639-.735-2.436-2.325-2.436a5.887,5.887,0,0,0-4.074,2.037V266.6h-1.528Z" transform="translate(-198.376 -243.343)" fill="#fff"/>
      </g>
    </g>
  </g>
</svg>
