<svg id="Group_1" data-name="Group 1" xmlns="http://www.w3.org/2000/svg" width="264.697" height="51.561" viewBox="0 0 264.697 51.561">
  <g id="Ebene_2" data-name="Ebene 2">
    <g id="Ebene_1-2" data-name="Ebene 1-2">
      <rect id="Rectangle_1" data-name="Rectangle 1" width="0.778" height="51.396" transform="translate(97.709)" fill="#fff"/>
      <path id="Path_1" data-name="Path 1" d="M470.076,243.992l-3.539,8.569h.83l6.727-8.569Z" transform="translate(-220.688 -236.194)" fill="#fff"/>
      <path id="Path_2" data-name="Path 2" d="M313.693,263.694a12.764,12.764,0,0,1-5.739-1.319l-1.472,1.319H305.8l-.451-8.37.791-.076c2.379,5.437,5.171,7.172,7.778,7.172a3.984,3.984,0,0,0,4.3-4.151c0-2.266-.868-3.361-4.417-4.834-1.209-.49-2.6-.981-3.775-1.547a6.587,6.587,0,0,1-4.039-6.154c0-4.494,3.888-7.211,7.7-7.211a8.241,8.241,0,0,1,4.417,1.247l1.473-1.277h.637l.637,7.4-.756.115c-2.07-4.171-4.3-6.2-6.754-6.2a3.41,3.41,0,0,0-3.587,3.663c0,1.775.757,3.133,3.435,4.305,1.319.6,2.872,1.133,4.266,1.81,3.057,1.472,4.494,3.4,4.494,6.19a8.012,8.012,0,0,1-8.27,7.928" transform="translate(-189.481 -235.13)" fill="#fff"/>
      <path id="Path_3" data-name="Path 3" d="M338.217,265.416c-5.739,0-8.569-4.115-8.569-9.141a8.8,8.8,0,0,1,9.057-9.1c5.739,0,8.5,4.077,8.5,9.06,0,4.676-3.172,9.175-8.986,9.175m.152-17.179c-2.645,0-4.267,2.944-4.267,8.118,0,5.1,1.738,8,4.417,8,2.764,0,4.266-2.94,4.266-8.114,0-5.1-1.622-8-4.416-8" transform="translate(-194.185 -236.811)" fill="#fff"/>
      <path id="Path_4" data-name="Path 4" d="M359.963,264.235c-2.976,0-3.924-1.472-3.924-4.19V248.752h-2.8v-.519l3.473-2.763,2.763-3.587h.567V246.8h5.739v1.955h-5.739v9.778c0,1.51.226,2.415.982,2.945a4.673,4.673,0,0,0,2.763.606c.6,0,1.36-.04,2.076-.08l.035.53a12.511,12.511,0,0,1-5.928,1.7" transform="translate(-198.753 -235.786)" fill="#fff"/>
      <path id="Path_5" data-name="Path 5" d="M380.9,247.568a8.24,8.24,0,0,0-3.926.943v12.5l2.114.793v.527h-8.53V261.8l2.379-.793v-22.8l-2.605-1.7v-.376l6.494-1.774.151.112v13.214l.153.075c2.226-2.114,4.265-3.057,6.3-3.057,3.4,0,4.831,2.568,4.831,5.248V261l2.381.793v.527h-8.525v-.527l2.125-.793v-9.507c0-2.455-.983-3.925-3.324-3.925" transform="translate(-202.062 -234.328)" fill="#fff"/>
      <path id="Path_6" data-name="Path 6" d="M401.418,254.994c0,4.795,1.356,7.928,5.624,7.928a15.442,15.442,0,0,0,5.7-1.208l.226.452a11.622,11.622,0,0,1-7.286,3.248c-5.172,0-8.571-3.55-8.571-8.8,0-5.4,4.08-9.438,8.684-9.438,4.985,0,7.4,3.359,7.361,7.814Zm7.511-1.274c-.15-3.548-1.172-5.474-3.4-5.474-2.191,0-3.888,2.3-4.078,5.814Z" transform="translate(-207.246 -236.811)" fill="#fff"/>
      <path id="Path_7" data-name="Path 7" d="M427.3,262.934a25.649,25.649,0,0,1-6.378-.982V238.207l-2.642-1.7v-.376l6.529-1.774.154.112v12.644l.15.077a7.711,7.711,0,0,1,5.474-2.491c3.587,0,6.83,3.284,6.83,8.684s-4.075,9.551-10.117,9.551m.639-15.594a7.508,7.508,0,0,0-2.976.606v11.964a5.68,5.68,0,0,0,4.113,1.737c2.228,0,4.078-2,4.078-7.323,0-4.676-2-6.983-5.213-6.983" transform="translate(-211.344 -234.329)" fill="#fff"/>
      <path id="Path_8" data-name="Path 8" d="M452.437,266.122c-1.889,4.646-3.66,6.684-6,6.684-2,0-2.945-1.172-2.945-2.379a2.253,2.253,0,0,1,2.261-2.151c1.277,0,2.04.678,2.947,1.81a14.572,14.572,0,0,0,2.076-3.211l.637-1.431-6.676-16.12-2.3-.906v-.489h9.211v.491l-2.421.906,4.078,11.054h.189l3.7-10.8L455,248.413v-.484h6.491v.491l-2.454,1.246Z" transform="translate(-216.021 -236.956)" fill="#fff"/>
      <path id="Path_9" data-name="Path 9" d="M480.176,265.416a14.934,14.934,0,0,1-5.588-1.021l-.036-4.983.757-.074c2.036,3.584,3.587,4.942,5.587,4.942a2.674,2.674,0,0,0,2.867-2.867c0-1.963-2-2.717-4.151-3.587-2.379-1.018-4.908-2.154-4.908-5.285,0-2.976,2.643-5.362,6.495-5.362a16.089,16.089,0,0,1,4.566.681l.115,4.492-.717.189c-1.851-3.057-3.057-4.229-4.8-4.229a2.386,2.386,0,0,0-2.568,2.415c0,1.964,2.039,2.763,4.19,3.627,2.38.981,4.946,2.114,4.946,5.313,0,3.509-3.1,5.739-6.759,5.739" transform="translate(-222.24 -236.811)" fill="#fff"/>
      <path id="Path_10" data-name="Path 10" d="M450.008,295.9h.85v-3.871l2.957-4.915h-.9l-2.457,4.192-2.47-4.192h-.914l2.936,4.915Zm-7.586,0h.85v-8h2.838v-.781h-6.52v.781h2.836Zm-7.489,0h5.138v-.773h-4.3v-8.012h-.851Zm-7.246-3.456,1.507-4.369h.024l1.507,4.369Zm-2.02,3.456h.821l.943-2.71h3.559l.939,2.708h.876L429.7,287.08h-.916Zm-6.578,0h5.5v-.773h-4.654v-3.488h3.288v-.761h-3.285V287.9h4.4v-.782h-5.248Zm-7.845-4.693v-3.333h2.043c1.472,0,2.28.426,2.28,1.641,0,1.276-.821,1.683-2.269,1.683Zm-.831,4.693h.831v-3.943h2.2l2.146,3.943h.948l-2.217-4.039a2.245,2.245,0,0,0,2.1-2.372c0-1.543-1.09-2.375-3.051-2.375h-2.943Zm-10.173,0h5.14v-.773h-4.291v-8.012h-.851Zm-7.451-3.456,1.509-4.369h.025l1.5,4.369Zm-2.016,3.456h.817l.939-2.71h3.562l.936,2.708h.881L394.8,287.08h-.907Zm-8.844,0h.8v-7.468h.025l4.992,7.467h.752v-8.785h-.8v7.242h-.023l-4.838-7.242h-.9Zm-6.4-.585c-1.663,0-2.861-1.414-2.861-3.8s1.2-3.79,2.861-3.79,2.86,1.4,2.86,3.79-1.2,3.8-2.86,3.8m0,.755c2.15,0,3.7-1.8,3.7-4.555s-1.554-4.56-3.7-4.56-3.7,1.8-3.7,4.56,1.556,4.555,3.7,4.555m-7.073-.164h.85v-8.794h-.85Zm-5.7,0h.851V287.9h2.838v-.782h-6.526v.782h2.838v8.012Zm-8.5-3.452,1.512-4.367h.024l1.509,4.369Zm-2.018,3.452h.818l.942-2.72h3.562l.937,2.708h.881l-3.11-8.82h-.914Zm-8.835,0h.8v-7.477h.024l5,7.467h.747v-8.785h-.8v7.242h-.024l-4.842-7.242h-.9Zm-8.078-4.69v-3.342h2.04c1.473,0,2.281.425,2.281,1.64,0,1.276-.821,1.684-2.269,1.684Zm-.831,4.69h.831v-3.953h2.18l2.15,3.944h.952l-2.22-4.039a2.244,2.244,0,0,0,2.1-2.372c0-1.543-1.093-2.375-3.051-2.375h-2.942Zm-7.778,0h5.5v-.773h-4.645v-3.5h3.288v-.761h-3.288V287.9h4.4v-.782h-5.256Zm-5.578,0h.85V287.9h2.838v-.782h-6.525v.782h2.838Zm-11.3,0h.8v-7.477h.024l5.008,7.467h.747v-8.785h-.8v7.242h-.024l-4.845-7.242h-.9Zm-3.88,0h.851v-8.794h-.851Z" transform="translate(-189.597 -244.513)" fill="#fff"/>
      <path id="Path_11" data-name="Path 11" d="M161.663,246.644h8.231c5.348,0,8.039,2.21,8.039,5.952a5.341,5.341,0,0,1-4.485,5.477v.064c2.947.551,5.252,2.381,5.252,5.783,0,3.748-2.626,6.439-8.1,6.439h-8.936l0-23.714ZM169.7,257.18c3.78,0,5.99-1.342,5.99-4.291,0-2.915-1.825-4.194-5.925-4.194h-5.862v8.485Zm.864,11.144c4.066,0,5.892-1.633,5.892-4.515,0-3.2-2.53-4.646-6.59-4.646h-5.952v9.161Z" transform="translate(-161.661 -236.708)" fill="#fff"/>
      <path id="Path_12" data-name="Path 12" d="M187,263.451c0-5.989,3.843-8.745,7.4-8.745,3.939,0,6.885,3.011,6.885,8.775v.426H189.216c.031,4.164,2.4,6.5,5.313,6.5a5.708,5.708,0,0,0,5.252-3.076l1.378,1.088a7.438,7.438,0,0,1-6.756,3.835C190.463,272.257,187,269.215,187,263.451Zm12.139-1.314c-.225-3.2-1.763-5.571-4.771-5.571-2.434,0-4.709,1.76-5.126,5.571Z" transform="translate(-166.567 -238.269)" fill="#fff"/>
      <path id="Path_13" data-name="Path 13" d="M209.881,255.028h2.21v3.332h.064a7.422,7.422,0,0,1,6.695-3.653h.385l-.224,2.056s-.61-.031-.673-.031a6.82,6.82,0,0,0-6.245,4.2v10.986h-2.21l0-16.885Z" transform="translate(-170.997 -238.269)" fill="#fff"/>
      <path id="Path_14" data-name="Path 14" d="M225.807,246.644h2.211v23.7h-2.211Z" transform="translate(-174.08 -236.708)" fill="#fff"/>
      <path id="Path_15" data-name="Path 15" d="M235.26,247.322H237.6v2.368H235.26Zm.065,6.276h2.211v16.879h-2.211Z" transform="translate(-175.91 -236.839)" fill="#fff"/>
      <path id="Path_16" data-name="Path 16" d="M244.632,255.028h2.21v2.657a9.254,9.254,0,0,1,6.437-2.976c3.331,0,5.029,1.858,5.029,5v12.2H256.1V260.118c0-2.371-1.063-3.523-3.363-3.523-2.176,0-4,1.121-5.893,2.947v12.364h-2.21Z" transform="translate(-177.725 -238.269)" fill="#fff"/>
    </g>
  </g>
</svg>
